<?xml version="1.0" encoding="utf-8"?>
<!-- Generator: Adobe Illustrator 27.0.0, SVG Export Plug-In . SVG Version: 6.00 Build 0)  -->
<svg version="1.1" id="Layer_1" xmlns="http://www.w3.org/2000/svg" xmlns:xlink="http://www.w3.org/1999/xlink" x="0px" y="0px"
	 viewBox="0 0 48 48" style="enable-background:new 0 0 48 48;" xml:space="preserve">
<style type="text/css">
	.st0{fill:#918F94;}
</style>
<circle class="st0" cx="23.5" cy="28.5" r="1.5"/>
<path class="st0" d="M23.5,34.5c-0.4,0-0.8-0.3-0.8-0.8v-4.5c0-0.4,0.3-0.8,0.8-0.8s0.8,0.3,0.8,0.8v4.5
	C24.2,34.2,23.9,34.5,23.5,34.5z"/>
<path class="st0" d="M37,42H10V19.5h27V42z M11.5,40.5h24V21h-24V40.5z"/>
<path class="st0" d="M32.5,20.2H31V15c0-4.1-3.4-7.5-7.5-7.5S16,10.9,16,15v5.2h-1.5V15c0-5,4-9,9-9s9,4,9,9V20.2z"/>
</svg>
