<?xml version="1.0" encoding="utf-8"?>
<!-- Generator: Adobe Illustrator 27.0.0, SVG Export Plug-In . SVG Version: 6.00 Build 0)  -->
<svg version="1.1" id="Layer_1" xmlns="http://www.w3.org/2000/svg" xmlns:xlink="http://www.w3.org/1999/xlink" x="0px" y="0px"
	 viewBox="0 0 64 64" style="enable-background:new 0 0 64 64;" xml:space="preserve">
<style type="text/css">
	.st0{fill:none;}
	.st1{fill:#010101;}
</style>
<g>
	<rect id="svg_1" x="0.1" y="0.4" class="st0" width="64" height="64"/>
	<path id="svg_2" class="st1" d="M13.4,48.8C4.2,38.5,5,22.7,15.2,13.4S41.3,5,50.6,15.2s8.4,26.1-1.8,35.3S22.7,59,13.4,48.8z
		 M49.1,16.6C40.6,7.2,26,6.4,16.6,14.9S6.4,38,14.9,47.4S38,57.6,47.4,49.1S57.6,26,49.1,16.6z"/>
	<path id="svg_3" class="st1" d="M31.3,48.3c-0.2-0.2-0.3-0.4-0.3-0.7V16.4c0-0.6,0.4-1,1-1s1,0.4,1,1l0,31.1c0,0.6-0.4,1-1,1
		c0,0,0,0,0,0C31.7,48.6,31.5,48.5,31.3,48.3z"/>
	<path id="svg_4" class="st1" d="M15.7,32.8c-0.2-0.2-0.3-0.4-0.3-0.7c0-0.6,0.4-1,1-1c0,0,0,0,0,0h31.1c0.6,0,1,0.4,1,1
		c0,0.6-0.4,1-1,1l-31.1,0C16.2,33.1,15.9,33,15.7,32.8z"/>
</g>
</svg>
