<?xml version="1.0" encoding="utf-8"?>
<!-- Generator: Adobe Illustrator 27.0.0, SVG Export Plug-In . SVG Version: 6.00 Build 0)  -->
<svg version="1.1" id="Layer_1" xmlns="http://www.w3.org/2000/svg" xmlns:xlink="http://www.w3.org/1999/xlink" x="0px" y="0px"
	 viewBox="0 0 48 48" style="enable-background:new 0 0 48 48;" xml:space="preserve">
<style type="text/css">
	.st0{fill:#918F94;}
</style>
<circle class="st0" cx="24" cy="29.3" r="1.6"/>
<path class="st0" d="M24,35.6c-0.4,0-0.8-0.3-0.8-0.8v-4.7c0-0.4,0.3-0.8,0.8-0.8s0.8,0.3,0.8,0.8v4.7C24.8,35.2,24.4,35.6,24,35.6z
	"/>
<path class="st0" d="M38,43.3H10V20h28V43.3z M11.6,41.8h24.9V21.6H11.6V41.8z"/>
<path class="st0" d="M33.3,20.8h-1.6v-5.4c0-4.3-3.5-7.8-7.8-7.8s-7.8,3.5-7.8,7.8h-1.6c0-5.1,4.2-9.3,9.3-9.3s9.3,4.2,9.3,9.3V20.8
	z"/>
</svg>
